<?xml version="1.0" encoding="UTF-8"?>
<svg width="291px" height="540px" viewBox="0 0 291 540" version="1.1" xmlns="http://www.w3.org/2000/svg" xmlns:xlink="http://www.w3.org/1999/xlink">
    <!-- Generator: Sketch 54.1 (76490) - https://sketchapp.com -->
    <title>The Gathering</title>
    <desc>Created with Sketch.</desc>
    <g id="Page-1" stroke="none" stroke-width="1" fill="none" fill-rule="evenodd">
        <g id="The-Gathering" transform="translate(0.562415, 0.714286)" stroke="#979797">
            <path d="M124.937585,104.785714 C124.937585,104.785714 120.778283,108.157174 115.937585,123.785714 C114.154735,129.541771 111.154735,142.041771 106.937585,161.285714 C97.9375848,158.285714 91.4375848,154.952381 87.4375848,151.285714 C83.4375848,147.619048 78.2709182,141.452381 71.9375848,132.785714 C71.6042515,135.119048 70.2709182,139.285714 67.9375848,145.285714 C65.6042515,151.285714 63.2709182,162.285714 60.9375848,178.285714 C58.9375848,178.619048 57.9375848,190.619048 57.9375848,214.285714 C57.9375848,219.263018 54.8648228,223.620037 55.4375848,227.285714 C57.9375848,243.285714 65.9375848,251.285714 63.9375848,263.785714 C62.6042515,272.119048 63.9375848,283.452381 67.9375848,297.785714 C70.6042515,303.785714 73.1042515,306.785714 75.4375848,306.785714 C78.9375848,306.785714 78.9375848,309.836373 78.9375848,311.285714 C78.9375848,312.818814 78.3945603,311.543625 75.4375848,311.285714 C74.0340194,311.163294 70.8673527,311.163294 65.9375848,311.285714 C60.3924844,306.127203 56.2258177,302.460536 53.4375848,300.285714 C50.649352,298.110893 46.4826853,295.277559 40.9375848,291.785714 C33.2709182,279.522245 29.4375848,269.522245 29.4375848,261.785714 C29.4375848,258.285714 19.0032149,249.075913 13.9375848,236.785714 C12.7183507,233.827616 10.8850173,230.66095 8.43758485,227.285714 L0.437584848,198.285714 C-0.145861616,190.805799 -0.145861616,185.805799 0.437584848,183.285714 C1.38880824,179.177087 4.89594338,176.500963 5.93758485,175.285714 C8.93758485,171.785714 7.93758485,165.785714 5.93758485,158.785714 C2.15151603,145.534473 5.48484937,127.534473 15.9375848,104.785714 L21.9375848,121.285714 L24.4375848,138.785714 L29.4375848,148.785714 L31.9375848,138.785714 L33.9375848,112.285714 L40.9375848,93.7857143 C45.9830531,82.7505632 49.1497197,74.2505632 50.4375848,68.2857143 C52.3693825,59.3384408 57.4375848,38.2857143 60.9375848,42.2857143 C63.2709182,44.952381 65.6042515,50.2857143 67.9375848,58.2857143 L67.9375848,74.2857143 C67.6958956,81.2857143 70.1958956,84.7857143 75.4375848,84.7857143 C80.6792741,84.7857143 86.6792741,81.2857143 93.4375848,74.2857143 L106.937585,49.7857143 L117.937585,17.2857143 C127.937585,2.61904762 132.937585,-2.71428571 132.937585,1.28571429 C132.937585,4.8070348 132.089865,16.1060441 132.937585,25.2857143 C133.5343,31.7473414 135.694327,36.8532446 136.437585,38.7857143 C139.770918,47.452381 142.604252,55.6190476 144.937585,63.2857143 L162.437585,112.285714 L182.437585,130.285714 L193.937585,151.285714 L215.437585,171.285714 L225.437585,198.285714 L225.437585,269.785714 L215.437585,297.785714 L202.437585,279.785714 L182.437585,233.285714 C182.086621,226.583786 180.753287,220.917119 178.437585,216.285714 C176.121882,211.65431 170.788549,199.820976 162.437585,180.785714 C157.437585,174.119048 153.270918,168.619048 149.937585,164.285714 C145.434548,158.431767 134.281605,145.505814 132.937585,138.785714 C129.937585,123.785714 124.937585,104.785714 124.937585,104.785714 Z" id="Path"></path>
            <path d="M99.9375848,236.285714 C117.437585,225.285714 136.937585,242.285714 144.937585,246.785714 C150.270918,249.785714 165.937585,275.619048 191.937585,324.285714 C197.270918,346.285714 202.770918,360.785714 208.437585,367.785714 C214.104252,374.785714 224.770918,395.785714 240.437585,430.785714 L275.437585,489.285714 C284.770918,508.285714 289.437585,520.285714 289.437585,525.285714 C289.437585,532.785714 282.437585,538.285714 275.437585,538.285714 C270.770918,538.285714 264.770918,532.119048 257.437585,519.785714 L233.937585,489.285714 L208.437585,454.285714 L191.937585,430.785714 L169.437585,401.785714 L135.437585,330.785714 C124.104252,314.785714 116.604252,305.119048 112.937585,301.785714 C109.270918,298.452381 102.437585,286.119048 92.4375848,264.785714 C85.7709182,253.119048 88.2709182,243.619048 99.9375848,236.285714 Z" id="Path-2"></path>
        </g>
    </g>
</svg>