<?xml version="1.0" encoding="UTF-8"?>
<svg width="649px" height="646px" viewBox="0 0 649 646" version="1.1" xmlns="http://www.w3.org/2000/svg" xmlns:xlink="http://www.w3.org/1999/xlink">
    <!-- Generator: Sketch 54.1 (76490) - https://sketchapp.com -->
    <title>lost</title>
    <desc>Created with Sketch.</desc>
    <g id="Page-1" stroke="none" stroke-width="1" fill="none" fill-rule="evenodd">
        <g id="lost" stroke="#979797">
            <path d="M324.5,0 L332,37.5 L328.5,47 C329.807143,47.24494 331.807143,51.9116067 334.5,61 C337.192857,70.0883933 340.526191,83.4217266 344.5,101 L360.5,124.5 L377.5,137.5 L386.5,170.5 L421,215 L436,194.5 L444.5,190 C445.513023,190.534497 446.846356,187.701163 448.5,181.5 C450.153644,175.298837 452.153644,165.63217 454.5,152.5 L454.5,143 L471,131.5 C476.893123,128.706053 481.059789,126.37272 483.5,124.5 C485.940211,122.62728 488.940211,119.460613 492.5,115 L492.5,137.5 L471,152.5 L466.5,159.5 L466.5,190 L448.5,208 L436,226 C437.397525,228.603882 440.230858,231.270548 444.5,234 C448.769142,236.729452 456.102475,240.562785 466.5,245.5 L492.5,266.5 L520.5,280 L579,291 L649,308 L620,315 L595.5,323 L564.5,332 L533,338.5 L503,346 L487,359.5 L466.5,380.5 L454.5,387.5 L444.5,387.5 L427,406 L444.5,424 L462,434.5 L466.5,447 L487,455.5 L520.5,474.5 L528,487 L492.5,474.5 L454.5,455.5 L436,429.5 L421,417 L400,434.5 L386.5,455.5 L382,479.5 L377.5,498 L360.5,513.5 L344.5,529.5 L337,581.5 C336.005863,583.611056 335.172529,585.944389 334.5,588.5 C333.827471,591.055611 332.994137,595.055611 332,600.5 L322,646 L313,606.5 L313,569.5 L304.5,546.5 L299.5,529.5 L295,513.5 L287.5,498 L275,479.5 L261.5,447 L216.5,399.5 L195,406 L175.5,434.5 L162,447 L148.5,455.5 L129.5,479.5 L98,498 C106.602902,482.820287 112.269569,474.320287 115,472.5 C117.730431,470.679713 120.730431,467.679713 124,463.5 L129.5,447 L168.5,417 L175.5,399.5 L195,380.5 L162,359.5 L124,338.5 L70,323 L55,323 L40.5,315 L29.5,315 L6,308 L0,308 L40.5,297 L80.5,291 L124,280 L162,262 L216.5,226 C209.053238,221.994239 203.386571,219.494239 199.5,218.5 C195.613429,217.505761 194.113429,218.172428 195,220.5 L195,206 L168.5,190 L162,181.5 C161.244405,173.477619 160.411071,167.644286 159.5,164 C158.588929,160.355714 157.588929,158.855714 156.5,159.5 L148.5,152.5 C143.851189,148.286027 140.184523,145.11936 137.5,143 C134.815477,140.88064 132.148811,139.047307 129.5,137.5 L124,131.5 L148.5,137.5 L175.5,164 L178.5,178.5 L216.5,190 L232,206 L246,194.5 L261.5,170.5 L287.5,131.5 L304.5,93 L313,67.5 L313,37.5 L324.5,0 Z" id="Path"></path>
            <path d="M324.5,99.5 L407,229.5 C403.509128,235.105059 399.675795,239.105059 395.5,241.5 C391.324205,243.894941 383.824205,246.394941 373,249 L366,266.5 L373,282.5 L388,274.5 L393,260.5 L407,256.5 L424.5,249 L473.5,274.5 L506,294.5 L568.5,309 L506,323 L473.5,345 L418,381.5 L404.5,370 L391,363 L378.5,358 L368.5,348.5 L362.5,339 L353.5,339 L349.5,345 L351.5,354.5 L357.5,363 L368.5,365.5 L382.5,370 L391,378.5 L393,396.5 L404.5,404 L391,423 L370.5,459 L351.5,495 L338.5,514 L328.5,537.5 L317,518 L310.5,500 L305,484 L295.5,468.5 L285,451.5 L269,423 L260,415.5 L253,404 L249.5,396.5 L246,392 L228,378.5 L235,365.5 L249.5,358 L269,351.5 L274,345 L274,341 L271,336.5 L260,339 L243.5,341 L235,345 L231,354.5 L226,361 L217,368 L177.5,345 L145.5,329.5 L94.5,313.5 L66,309 L119,294.5 L153,282.5 L201,260.5 L221.5,249 L239,236.5 L241.5,236.5 L256,245 L271,260.5 L281,269 L286.5,262.5 L282.5,255 L279.5,245 L277,238.5 L269,232 L249.5,227 L266,202 L274,183.5 L305,148 L310.5,138 L324.5,99.5 Z" id="Path-2"></path>
            <polygon id="Path-3" points="274.5 302.5 294.5 285 317.5 258 337.5 280.5 360 302.5 337.5 323 317.5 346.5 309 330.5 294.5 312"></polygon>
        </g>
    </g>
</svg>