<?xml version="1.0" encoding="UTF-8"?>
<svg width="520px" height="630px" viewBox="0 0 520 630" version="1.1" xmlns="http://www.w3.org/2000/svg" xmlns:xlink="http://www.w3.org/1999/xlink">
    <!-- Generator: Sketch 54.1 (76490) - https://sketchapp.com -->
    <title>The House Always Wins</title>
    <desc>Created with Sketch.</desc>
    <g id="Page-1" stroke="none" stroke-width="1" fill="none" fill-rule="evenodd">
        <g id="The-House-Always-Wins" transform="translate(1.000000, 0.500000)" stroke="#979797">
            <path d="M265.5,0 C271.621712,24.4211345 277.121712,42.2544678 282,53.5 C309.79283,117.568611 340.601686,143.977959 361.5,160 C376.5,171.5 408.139738,196.519115 436,227 C437.075618,228.176794 500.5,302.5 509,317.5 C513.281926,325.05634 477,311 450.5,291.5 C441.295133,284.726607 421.9618,276.393274 392.5,266.5 C399.124079,259.908184 403.790745,255.574851 406.5,253.5 C417.065427,245.408593 422.148102,241.222096 419.5,234 C414,219 391.5,211 376.5,211 C371.016122,211 357.190441,213.282499 349,220.5 C344.503301,224.462538 339.169967,233.295871 333,247 C339.370626,256.645557 344.703959,263.145557 349,266.5 C355.444061,271.531664 366.953044,279.473252 369.5,275.5 C372.046956,271.526748 359.656597,257.928746 361.5,247 C363.343403,236.071254 368.527311,234 376.5,234 C384.472689,234 392.5,247 385.5,253.5 C380.833333,257.833333 380.833333,270.5 385.5,291.5 C403.743829,300.808753 416.516278,307.183369 423.817348,310.62385 C437.880899,317.251011 448.941783,321.876394 457,324.5 C478.5,331.5 500,347.5 509,355.5 C518,363.5 518,386 518,386 C518,386 495.5,423.5 478.5,435 C467.166667,442.666667 447.5,451.166667 419.5,460.5 C386.166667,464.166667 366.833333,466 361.5,466 C356.166667,466 341.333333,460.5 317,449.5 C305.333333,438.833333 299.5,436.166667 299.5,441.5 C299.5,446.833333 299.5,458.666667 299.5,477 C318.833333,529 335.333333,559.333333 349,568 C362.666667,576.666667 381.833333,589.166667 406.5,605.5 C415.166667,620.166667 415.166667,627.5 406.5,627.5 C397.833333,627.5 387.833333,624.833333 376.5,619.5 C362.5,619.5 353.333333,619.5 349,619.5 C342.5,619.5 339.824301,594.066046 333,588 C310.5,568 303.331916,557 299.5,557 C294.166667,557 291.5,563.333333 291.5,576 C291.5,586.333333 294.166667,596.166667 299.5,605.5 C307.5,619.5 313,611.5 313,619.5 C313,627.5 237.5,619.5 237.5,619.5 C237.5,619.5 232.5,557 232.5,557 C232.5,557 212,546 219,557 C222.521849,562.534334 215.114413,579.229731 194,593 C188.88166,596.338048 175.145367,604.482601 173.5,612.5 C171.44852,622.496272 181.546441,631.939416 173.5,627.5 C163.833333,622.166667 145.833333,622.166667 119.5,627.5 C108.166667,617.5 105.5,612.5 111.5,612.5 C117.5,612.5 130,606 149,593 C186,561.666667 204.5,542.333333 204.5,535 C204.5,527.666667 213.833333,511.333333 232.5,486 C232.5,452 232.5,435 232.5,435 C232.5,435 224.095865,448.534311 210.547933,449.017155 C197,449.5 197.129924,457.956937 194,460.5 C186,467 137.109384,466.792164 119.5,466 C88.5681311,464.60852 66.5420913,455.279756 52.5,449.5 C30.4638048,440.429853 12.9638048,419.263187 0,386 C3.66666667,365.666667 7.16666667,355.5 10.5,355.5 C13.8333333,355.5 18.3333333,351 24,342 C27.6666667,346.333333 32,346.333333 37,342 C42,337.666667 58.8333333,331.833333 87.5,324.5 L133.5,310.5 L149,297 L149,275.5 L139,253.5 C141,240.5 146.166667,234 154.5,234 C162.833333,234 169.166667,244.833333 173.5,266.5 C187.166667,277.5 194,271 194,247 C194,223 175.666667,211 139,211 C116.399993,224.023106 104.399993,233.523106 103,239.5 C101.600007,245.476894 109.266674,254.476894 126,266.5 C134.666667,272.5 129.833333,277.833333 111.5,282.5 C84,289.5 89,288.5 63,297 C45.6666667,302.666667 31,309.5 19,317.5 C24.3333333,294.166667 28.6666667,282.5 32,282.5 C35.3333333,282.5 40.5,280.166667 47.5,275.5 L119.5,195 C143.474429,184.707155 161.474429,170.040488 173.5,151 C179.5,141.5 211,124 225.5,92.5 C233.290921,75.5748961 246.624254,44.7415627 265.5,0 Z" id="Path"></path>
            <path d="M233,124 C246,124 294,126 309.5,132 C319.833333,136 329,146.333333 337,163 L347,185.5 L320,201.5 C313,223.5 306.833333,229 301.5,218 C296.166667,207 298.833333,192.166667 309.5,173.5 L301.5,157.5 L225,152 C208.333333,161.666667 202,167.666667 206,170 C210,172.333333 216.333333,177.5 225,185.5 C237,211.166667 239.666667,222 233,218 C226.333333,214 210,198 184,170 C208,139.333333 224.333333,124 233,124 Z" id="Path-2"></path>
            <path d="M230.5,276.5 C234.833333,283.166667 237,313.5 237,367.5 L214,345.5 L190.5,345.5 L156,362.5 L136,388.5 L136,415.5 C142.82225,396.829151 149.488917,385.662484 156,382 C165.766625,376.506274 177.5,381 184,388.5 C190.5,396 201,405 190.5,415.5 C183.5,422.5 169.333333,429.333333 148,436 C144.051596,440.332081 132.884929,440.332081 114.5,436 C86.9226065,429.501879 63.245951,430.259106 61,415.5 C58.754049,400.740894 63.188242,392.217637 70,382 C74.541172,375.188242 82.2078387,370.354909 93,367.5 L125,356.5 L172,331.5 L201,314.5 C216.333333,282.5 226.166667,269.833333 230.5,276.5 Z" id="Path-3"></path>
            <path d="M294.5,280.5 L294.5,362.5 L321.5,338.5 L355,344.5 L385,362.5 L385,402.5 C376.017654,387.487978 369.517654,378.821311 365.5,376.5 C362.716401,374.891699 348.14732,373.893749 340,376.5 C330.508401,379.536274 327.5,386.804251 327.5,393.5 C327.5,401.795461 331.666667,410.962127 340,421 L365.5,431.5 L394.5,431.5 C416.652976,431.95618 431.486309,430.289514 439,426.5 C450.270536,420.81573 448.804184,414.791599 452,402.5 C455.195816,390.208401 461.226994,393.856301 452,382.5 C445.84867,374.929133 436.34867,368.262466 423.5,362.5 C408.833333,356.833333 400.5,352 398.5,348 C396.5,344 393.166667,339.833333 388.5,335.5 C380.966243,334.592291 375.799577,333.425624 373,332 C367.879308,329.392398 366.280896,326.12042 363.5,324 C360.342223,321.59221 356.280647,320.5 355,320.5 C352.748062,320.5 346.639112,324.692303 327.5,311 C321.372847,306.616576 310.372847,296.449909 294.5,280.5 Z" id="Path-4"></path>
        </g>
    </g>
</svg>