<?xml version="1.0" encoding="UTF-8"?>
<svg width="615px" height="598px" viewBox="0 0 615 598" version="1.1" xmlns="http://www.w3.org/2000/svg" xmlns:xlink="http://www.w3.org/1999/xlink">
    <!-- Generator: Sketch 54.1 (76490) - https://sketchapp.com -->
    <title>Path</title>
    <desc>Created with Sketch.</desc>
    <g id="Page-1" stroke="none" stroke-width="1" fill="none" fill-rule="evenodd">
        <path d="M43.5,357.5 C47.1666667,357.5 41.1666667,355.5 25.5,351.5 C23.8169327,350.699624 21.9835993,351.699624 20,354.5 C18.0164007,357.300376 17.0164007,360.300376 17,363.5 L17,372.5 C22.6666667,389.166667 28.5,398.666667 34.5,401 C40.5,403.333333 47.5,405.333333 55.5,407 L69.5,407 L80,401 L85,397 L92.5,391 L92.5,382.5 L88.5,372.5 L88.5,363.5 L85,357.5 L80,347 L72.5,336.5 L66,325.5 L66,310.5 L69.5,293.5 L69.5,282 L69.5,270 L66,259.5 L59.5,252.5 L55,246.5 L43.5,243 L43.5,236 L43.5,226 C40.1424191,220.080364 40.1424191,218.580364 43.5,221.5 C46.8575809,224.419636 55.5242476,235.919636 69.5,256 L80,256 L88.5,252.5 L99,270 L121.5,282 L154,293.5 L166.5,290.5 L178,286.5 L192,320.5 L203.5,330.5 L219.5,333.5 L246,336.5 L263,340 L271,351.5 L271,397 L276.5,435.5 L276.5,451.5 L281,465 L281,491.5 L281,509.5 L313,531 L292.5,538 L281,542 L263,538 L252.5,531 L246,527 L246,509.5 L246,487.5 L246,465 L246,456 L240.5,441 L236,419 L230.5,407 L225,397 L219.5,391 L208.5,382.5 L192,376.5 L178,372.5 L165,376.5 L154,381 L146,391 L137.5,401 L131,412.5 L126.5,424.5 L121.5,435.5 L126.5,465 C129.5,476.333333 131,485.166667 131,491.5 C131,501 138,515 146,518.5 C151.333333,520.833333 156,523.666667 160,527 L178,527 L192,514.5 L197.5,509.5 L197.5,496.5 L197.5,487.5 L192,480 L182.5,473.5 C181.166667,471.166667 177.666667,471.166667 172,473.5 C166.333333,475.833333 166.333333,480.5 172,487.5 C168.333333,482.5 168.333333,480 172,480 C175.666667,480 179.166667,482.5 182.5,487.5 L182.5,496.5 L172,503.5 L165,503.5 L160,496.5 L154,487.5 L154,473.5 L154,465 L154,451.5 L154,445 L146,441 L146,435.5 L160,431 L172,424.5 L178,419 L197.5,419 L208.5,431 L215.5,441 L219.5,456 L225,473.5 L225,496.5 L230.5,514.5 L225,527 L219.5,546.5 L215.5,557.5 L215.5,572.5 L225,584 L240.5,589.5 L252.5,589.5 L276.5,597 L292.5,597 L307.5,589.5 C312.833333,585.833333 319.666667,584 328,584 C336.333333,584 346.5,584 358.5,584 L382,572.5 L402.5,557.5 L422.5,557.5 L441,546.5 L460,542 L486.5,527 L510,503.5 L534.5,473.5 L572,441 C576.333333,433.333333 580.833333,426 585.5,419 C592.5,408.5 577.5,417.5 592,397 C601.666667,383.333333 609,368.166667 614,351.5 L592,357.5 L581,363.5 L565,363.5 L550.5,347 L534.5,290.5 L550.5,246.5 L558.5,205 L550.5,182 L525,132 C519.733897,124.661074 514.733897,114.327741 510,101 C505.266103,87.672259 499.43277,67.5055924 492.5,40.5 L475.5,29.5 L460,29.5 L441,29.5 L435,47 L422.5,60.5 L402.5,60.5 L382,47 C378,50 378,47.8333333 382,40.5 C386,33.1666667 390,27.3333333 394,23 L402.5,29.5 L402.5,40.5 L394,40.5 C395,42.5 396.666667,44.6666667 399,47 C401.333333,49.3333333 406,46 413,37 C413,36.6666667 413,32 413,23 C413,14 404.5,12 387.5,17 L369.5,34 L369.5,52.5 L382,71.5 L402.5,81 L419.5,81 L435,68 L446,60.5 C447.666667,51.5 449.833333,47 452.5,47 C455.166667,47 462.833333,48.8333333 475.5,52.5 L481.5,63.5 L475.5,68 L481.5,78 L486.5,85 L506,146 L502,160 L515,190.5 L510,215.5 L481.5,160 L472,152.5 L460,149.5 L422.5,149.5 L413,146 L402.5,146 L387.5,141.5 L369.5,141.5 C359.5,135.166667 355.833333,132 358.5,132 C362.5,132 337.5,123.5 328,105.5 C321.666667,93.5 317.5,77.1666667 315.5,56.5 C315.5,50.1666667 315.5,41.1666667 315.5,29.5 C315.5,17.8333333 307.833333,8.33333333 292.5,1 L258.5,6 L236,9 L219.5,12.5 L197.5,20 L165,20 L146,29.5 L126.5,29.5 C99.1666667,42.1666667 81.1666667,49.8333333 72.5,52.5 C63.8333333,55.1666667 59.5,68.5 59.5,92.5 L80,105.5 L131,108.5 L142.5,108.5 L166.5,129 L182.5,149.5 L182.5,160 L175,169.5 L150.5,182 L131,182 L121.5,174.5 C123.833333,164.5 123.833333,161.166667 121.5,164.5 C119.166667,167.833333 117.5,171.166667 116.5,174.5 C116.5,179.5 116.5,183.166667 116.5,185.5 C116.5,189 116.5,190.5 126.5,198 C133.166667,203 149.333333,200.5 175,190.5 L197.5,169.5 L200.5,155.5 L200.5,146 L192,132 L154,96.5 L131,85 L103,81 L103,71.5 C103,66.1666667 109.166667,61.1666667 121.5,56.5 C126.081458,54.7664753 128.350397,56.5776489 131,56.5 C133.988771,56.4124115 136.155437,57.7457448 137.5,60.5 L178,47 L263,29.5 L276.5,34 L292.5,60.5 L296.5,71.5 L296.5,96.5 L296.5,116 L302,129 L307.5,138 L331.5,146 L336.5,169.5 L341.5,182 L358.5,190.5 L382,190.5 L402.5,190.5 L419.5,182 L422.5,190.5 L452.5,198 L472,209 L481.5,226 L486.5,243 L498.5,249.5 L492.5,274.5 L492.5,290.5 L492.5,302 L498.5,310.5 C494.5,317.166667 490.5,323.833333 486.5,330.5 C480.5,340.5 479.770729,338.50424 481.5,354.5 C482.652848,365.16384 486.319514,375.66384 492.5,386 C488.5,383.666667 484.833333,380.5 481.5,376.5 C478.166667,372.5 472.5,357.166667 464.5,330.5 L464.5,305.5 L460,293.5 L441,282 L408.5,270 L376.5,264.5 L364.5,256 L358.5,243 L341.5,221.5 L322.5,209 L302,205 L288,205 L276.5,209 L271,215.5 L263,221.5 L252.5,221.5 L240.5,209 L240.5,198 L246,190.5 L252.5,185.5 L240.5,182 L230.5,185.5 L225,198 L225,209 L230.5,221.5 L240.5,231.5 C251.166667,232.833333 259.833333,236.666667 266.5,243 C267.624948,244.068701 274.791615,236.902034 288,221.5 L302,231.5 C300.333333,224.833333 307.166667,223 322.5,226 C337.833333,229 344.166667,234.666667 341.5,243 L341.5,259.5 L341.5,270 L351,282 L369.5,286.5 L382,282 L399,290.5 L413,302 L422.5,302 L422.5,310.5 L422.5,320.5 L435,351.5 L430.5,372.5 L430.5,391 L441,412.5 L460,419 L446,419 L430.5,424.5 L413,435.5 L394,445 L376.5,451.5 L358.5,445 L341.5,435.5 L336.5,431 L336.5,419 L345.5,407 L351,401 C357.026656,400.221324 360.526656,400.221324 361.5,401 C362.473344,401.778676 361.473344,403.778676 358.5,407 L358.5,412.5 L364.5,419 C368.257266,417.466358 370.923932,416.299691 372.5,415.5 C383.006616,410.168982 391.381019,407 399,407 C402.036516,407 403.768927,403.434475 405.5,401 C407.893148,397.634422 408.893148,388.134422 408.5,372.5 L394,351.5 L387.5,347 L394,325.5 L382,325.5 L376.5,340 L376.5,351.5 C382.5,353.166667 388.333333,360.166667 394,372.5 C399.666667,384.833333 395.666667,393 382,397 L369.5,391 L364.5,381 L351,381 L328,401 L315.5,435.5 L341.5,465 L394,473.5 C406.345604,469.382987 415.845604,466.549654 422.5,465 C429.154396,463.450346 431.821063,463.450346 430.5,465 C436.22643,464.009135 439.72643,464.009135 441,465 C447.605677,470.139359 445.134347,477.047109 446,480 C436.666667,475 425.666667,475 413,480 L372.5,509.5 L341.5,514.5 C335.761989,514.554117 331.261989,512.88745 328,509.5 C324.738011,506.11255 320.571344,498.779217 315.5,487.5 L302,456 L292.5,419 L302,363.5 L307.5,320.5 L292.5,302 L276.5,299 L252.5,305.5 L236,305.5 L225,290.5 L208.5,259.5 L175,256 L131,256 L103,243 L80,205 L59.5,190.5 L50.5,169.5 C49.906565,163.265716 49.906565,158.599049 50.5,155.5 C51.093435,152.400951 52.593435,149.234284 55,146 C50.217743,141.183857 44.5510763,138.51719 38,138 C28.1733856,137.224215 22.5,148.5 8,169.5 C-1.66666667,183.5 -0.166666667,198.833333 12.5,215.5 L1,226 L1,246.5 L17,256 L34.5,259.5 L43.5,270 L43.5,290.5 L38,310.5 L43.5,330.5 L59.5,347 L72.5,357.5 L72.5,376.5 L72.5,386 L59.5,391 L50.5,391 L43.5,386 L34.5,376.5 L29,363.5 C35,359.5 39.8333333,357.5 43.5,357.5 Z" id="Path" stroke="#979797"></path>
    </g>
</svg>